<svg id="visual" viewBox="0 0 900 600" width="900" height="600" xmlns="http://www.w3.org/2000/svg" xmlns:xlink="http://www.w3.org/1999/xlink" version="1.1"><g stroke-width="1" stroke-linejoin="bevel"><path d="M415 304.9L378 313.9L418 322Z" fill="#0087bb" stroke="#0087bb"></path><path d="M415 304.9L379 292L378 313.9Z" fill="#0087bb" stroke="#0087bb"></path><path d="M349 352.9L372 345.7L378 313.9Z" fill="#51ac44" stroke="#51ac44"></path><path d="M378 313.9L372 345.7L418 322Z" fill="#0087bb" stroke="#0087bb"></path><path d="M415 304.9L390 263.1L379 292Z" fill="#0093bb" stroke="#0093bb"></path><path d="M338 288.1L378 313.9L379 292Z" fill="#613396" stroke="#613396"></path><path d="M338 288.1L349 352.9L378 313.9Z" fill="#0087bb" stroke="#0087bb"></path><path d="M373 375.9L428 370.7L372 345.7Z" fill="#4d49a6" stroke="#4d49a6"></path><path d="M372 345.7L428 370.7L418 322Z" fill="#0093bb" stroke="#0093bb"></path><path d="M418 322L463 342.9L415 304.9Z" fill="#51ac44" stroke="#51ac44"></path><path d="M349 352.9L373 375.9L372 345.7Z" fill="#0087bb" stroke="#0087bb"></path><path d="M339 268L338 288.1L379 292Z" fill="#00a591" stroke="#00a591"></path><path d="M428 370.7L463 342.9L418 322Z" fill="#007abb" stroke="#007abb"></path><path d="M413 237.1L394 237.1L390 263.1Z" fill="#00aa6d" stroke="#00aa6d"></path><path d="M390 263.1L339 268L379 292Z" fill="#613396" stroke="#613396"></path><path d="M413 237.1L390 263.1L415 304.9Z" fill="#4d49a6" stroke="#4d49a6"></path><path d="M390 263.1L394 237.1L339 268Z" fill="#345bb1" stroke="#345bb1"></path><path d="M458 225.3L413 237.1L415 304.9Z" fill="#4d49a6" stroke="#4d49a6"></path><path d="M428 370.7L471 360.7L463 342.9Z" fill="#0093bb" stroke="#0093bb"></path><path d="M370 419.6L387 404.6L373 375.9Z" fill="#00aa6d" stroke="#00aa6d"></path><path d="M373 375.9L387 404.6L428 370.7Z" fill="#345bb1" stroke="#345bb1"></path><path d="M428 370.7L425 407.7L471 360.7Z" fill="#007abb" stroke="#007abb"></path><path d="M471 360.7L492 303L463 342.9Z" fill="#009dac" stroke="#009dac"></path><path d="M463 342.9L492 303L415 304.9Z" fill="#51ac44" stroke="#51ac44"></path><path d="M387 404.6L425 407.7L428 370.7Z" fill="#146bb8" stroke="#146bb8"></path><path d="M325 423.6L370 419.6L373 375.9Z" fill="#009dac" stroke="#009dac"></path><path d="M387 404.6L438 446.6L425 407.7Z" fill="#51ac44" stroke="#51ac44"></path><path d="M492 303L458 225.3L415 304.9Z" fill="#00aa6d" stroke="#00aa6d"></path><path d="M390 187.3L378 197.4L394 237.1Z" fill="#0093bb" stroke="#0093bb"></path><path d="M250 269.1L282 325L338 288.1Z" fill="#146bb8" stroke="#146bb8"></path><path d="M338 288.1L282 325L349 352.9Z" fill="#009dac" stroke="#009dac"></path><path d="M349 352.9L325 423.6L373 375.9Z" fill="#0093bb" stroke="#0093bb"></path><path d="M512 257.1L469 220.3L458 225.3Z" fill="#00aa6d" stroke="#00aa6d"></path><path d="M390 187.3L394 237.1L413 237.1Z" fill="#007abb" stroke="#007abb"></path><path d="M390 187.3L413 237.1L429 178.3Z" fill="#0093bb" stroke="#0093bb"></path><path d="M394 237.1L378 197.4L339 268Z" fill="#0093bb" stroke="#0093bb"></path><path d="M247 271L256 330.9L282 325Z" fill="#146bb8" stroke="#146bb8"></path><path d="M282 325L292 378.7L349 352.9Z" fill="#51ac44" stroke="#51ac44"></path><path d="M530 286L512 257.1L492 303Z" fill="#007abb" stroke="#007abb"></path><path d="M492 303L512 257.1L458 225.3Z" fill="#0093bb" stroke="#0093bb"></path><path d="M429 178.3L413 237.1L458 225.3Z" fill="#0087bb" stroke="#0087bb"></path><path d="M292 378.7L325 423.6L349 352.9Z" fill="#613396" stroke="#613396"></path><path d="M565 304.9L530 286L492 303Z" fill="#0093bb" stroke="#0093bb"></path><path d="M370 419.6L438 446.6L387 404.6Z" fill="#00a591" stroke="#00a591"></path><path d="M425 407.7L502 431.4L471 360.7Z" fill="#613396" stroke="#613396"></path><path d="M471 360.7L565 304.9L492 303Z" fill="#146bb8" stroke="#146bb8"></path><path d="M369 479.3L438 446.6L370 419.6Z" fill="#146bb8" stroke="#146bb8"></path><path d="M417 150.4L429 178.3L429 144.6Z" fill="#4d49a6" stroke="#4d49a6"></path><path d="M469 220.3L429 178.3L458 225.3Z" fill="#613396" stroke="#613396"></path><path d="M250 269.1L338 288.1L339 268Z" fill="#613396" stroke="#613396"></path><path d="M282 325L256 330.9L292 378.7Z" fill="#4d49a6" stroke="#4d49a6"></path><path d="M292 378.7L261 451.4L325 423.6Z" fill="#00aa6d" stroke="#00aa6d"></path><path d="M438 446.6L502 431.4L425 407.7Z" fill="#0087bb" stroke="#0087bb"></path><path d="M309 174.3L339 268L378 197.4Z" fill="#0093bb" stroke="#0093bb"></path><path d="M277 193.3L250 269.1L339 268Z" fill="#009dac" stroke="#009dac"></path><path d="M250 269.1L247 271L282 325Z" fill="#51ac44" stroke="#51ac44"></path><path d="M234 342.9L253 390.7L256 330.9Z" fill="#00aa6d" stroke="#00aa6d"></path><path d="M256 330.9L253 390.7L292 378.7Z" fill="#613396" stroke="#613396"></path><path d="M438 446.6L487 453.6L502 431.4Z" fill="#613396" stroke="#613396"></path><path d="M361 481.4L370 419.6L325 423.6Z" fill="#4d49a6" stroke="#4d49a6"></path><path d="M361 481.4L369 479.3L370 419.6Z" fill="#4d49a6" stroke="#4d49a6"></path><path d="M438 446.6L463 496.4L487 453.6Z" fill="#4d49a6" stroke="#4d49a6"></path><path d="M565 304.9L559 276.1L530 286Z" fill="#009dac" stroke="#009dac"></path><path d="M530 286L559 276.1L512 257.1Z" fill="#0093bb" stroke="#0093bb"></path><path d="M546 200.3L500 176.4L469 220.3Z" fill="#146bb8" stroke="#146bb8"></path><path d="M232 273.1L234 342.9L256 330.9Z" fill="#007abb" stroke="#007abb"></path><path d="M571 406.7L565 304.9L471 360.7Z" fill="#4d49a6" stroke="#4d49a6"></path><path d="M429 178.3L417 150.4L390 187.3Z" fill="#345bb1" stroke="#345bb1"></path><path d="M372 145.4L309 174.3L378 197.4Z" fill="#0093bb" stroke="#0093bb"></path><path d="M236 245.3L232 273.1L247 271Z" fill="#007abb" stroke="#007abb"></path><path d="M500 176.4L429 178.3L469 220.3Z" fill="#0093bb" stroke="#0093bb"></path><path d="M372 145.4L378 197.4L390 187.3Z" fill="#51ac44" stroke="#51ac44"></path><path d="M346 500.3L361 481.4L325 423.6Z" fill="#613396" stroke="#613396"></path><path d="M369 479.3L394 496.4L438 446.6Z" fill="#00aa6d" stroke="#00aa6d"></path><path d="M236 245.3L247 271L250 269.1Z" fill="#4d49a6" stroke="#4d49a6"></path><path d="M247 271L232 273.1L256 330.9Z" fill="#51ac44" stroke="#51ac44"></path><path d="M309 174.3L277 193.3L339 268Z" fill="#146bb8" stroke="#146bb8"></path><path d="M417 150.4L372 145.4L390 187.3Z" fill="#0087bb" stroke="#0087bb"></path><path d="M546 200.3L469 220.3L512 257.1Z" fill="#0087bb" stroke="#0087bb"></path><path d="M500 176.4L429 144.6L429 178.3Z" fill="#0093bb" stroke="#0093bb"></path><path d="M417 150.4L391 103.6L372 145.4Z" fill="#4d49a6" stroke="#4d49a6"></path><path d="M277 193.3L236 245.3L250 269.1Z" fill="#0093bb" stroke="#0093bb"></path><path d="M368 526.3L394 496.4L369 479.3Z" fill="#51ac44" stroke="#51ac44"></path><path d="M596 277.1L560 228.3L559 276.1Z" fill="#0093bb" stroke="#0093bb"></path><path d="M559 276.1L560 228.3L512 257.1Z" fill="#4d49a6" stroke="#4d49a6"></path><path d="M560 228.3L546 200.3L512 257.1Z" fill="#0093bb" stroke="#0093bb"></path><path d="M180 305.9L210 346.7L234 342.9Z" fill="#009dac" stroke="#009dac"></path><path d="M234 342.9L212 366.7L253 390.7Z" fill="#0087bb" stroke="#0087bb"></path><path d="M186 288L234 342.9L232 273.1Z" fill="#0093bb" stroke="#0093bb"></path><path d="M279 472.4L346 500.3L325 423.6Z" fill="#51ac44" stroke="#51ac44"></path><path d="M361 481.4L368 526.3L369 479.3Z" fill="#4d49a6" stroke="#4d49a6"></path><path d="M261 451.4L292 378.7L253 390.7Z" fill="#0087bb" stroke="#0087bb"></path><path d="M413 526.3L463 496.4L394 496.4Z" fill="#009dac" stroke="#009dac"></path><path d="M394 496.4L463 496.4L438 446.6Z" fill="#345bb1" stroke="#345bb1"></path><path d="M572 426.6L569 408.6L502 431.4Z" fill="#51ac44" stroke="#51ac44"></path><path d="M391 103.6L345 132.6L372 145.4Z" fill="#51ac44" stroke="#51ac44"></path><path d="M372 145.4L345 132.6L309 174.3Z" fill="#00a591" stroke="#00a591"></path><path d="M309 174.3L277 164.6L277 193.3Z" fill="#613396" stroke="#613396"></path><path d="M238 426.6L261 451.4L253 390.7Z" fill="#00a591" stroke="#00a591"></path><path d="M210 346.7L212 366.7L234 342.9Z" fill="#613396" stroke="#613396"></path><path d="M345 132.6L297 152.4L309 174.3Z" fill="#51ac44" stroke="#51ac44"></path><path d="M277 193.3L243 172.4L236 245.3Z" fill="#00aa6d" stroke="#00aa6d"></path><path d="M541 460.4L502 431.4L487 453.6Z" fill="#146bb8" stroke="#146bb8"></path><path d="M502 431.4L569 408.6L471 360.7Z" fill="#009dac" stroke="#009dac"></path><path d="M212 366.7L238 426.6L253 390.7Z" fill="#51ac44" stroke="#51ac44"></path><path d="M297 152.4L277 164.6L309 174.3Z" fill="#613396" stroke="#613396"></path><path d="M569 408.6L571 406.7L471 360.7Z" fill="#4d49a6" stroke="#4d49a6"></path><path d="M228 489.4L279 472.4L261 451.4Z" fill="#146bb8" stroke="#146bb8"></path><path d="M261 451.4L279 472.4L325 423.6Z" fill="#0087bb" stroke="#0087bb"></path><path d="M277 164.6L266 171.4L277 193.3Z" fill="#4d49a6" stroke="#4d49a6"></path><path d="M611 281L596 277.1L622 310.9Z" fill="#0087bb" stroke="#0087bb"></path><path d="M565 304.9L596 277.1L559 276.1Z" fill="#613396" stroke="#613396"></path><path d="M570 161.6L541 163.4L546 200.3Z" fill="#51ac44" stroke="#51ac44"></path><path d="M523 506.3L541 460.4L487 453.6Z" fill="#0093bb" stroke="#0093bb"></path><path d="M569 408.6L572 426.6L571 406.7Z" fill="#00a591" stroke="#00a591"></path><path d="M541 460.4L572 426.6L502 431.4Z" fill="#613396" stroke="#613396"></path><path d="M622 310.9L596 277.1L565 304.9Z" fill="#007abb" stroke="#007abb"></path><path d="M546 200.3L541 163.4L500 176.4Z" fill="#345bb1" stroke="#345bb1"></path><path d="M466 59.7L411 96.7L429 144.6Z" fill="#0087bb" stroke="#0087bb"></path><path d="M592 197.4L546 200.3L560 228.3Z" fill="#007abb" stroke="#007abb"></path><path d="M368 526.3L413 526.3L394 496.4Z" fill="#613396" stroke="#613396"></path><path d="M463 496.4L523 506.3L487 453.6Z" fill="#613396" stroke="#613396"></path><path d="M326 565.1L368 526.3L346 500.3Z" fill="#00aa6d" stroke="#00aa6d"></path><path d="M346 500.3L368 526.3L361 481.4Z" fill="#146bb8" stroke="#146bb8"></path><path d="M263 105.6L255 160.6L277 164.6Z" fill="#613396" stroke="#613396"></path><path d="M277 164.6L255 160.6L266 171.4Z" fill="#00a591" stroke="#00a591"></path><path d="M266 171.4L243 172.4L277 193.3Z" fill="#345bb1" stroke="#345bb1"></path><path d="M236 245.3L186 288L232 273.1Z" fill="#4d49a6" stroke="#4d49a6"></path><path d="M263 105.6L277 164.6L297 152.4Z" fill="#613396" stroke="#613396"></path><path d="M255 160.6L243 172.4L266 171.4Z" fill="#0087bb" stroke="#0087bb"></path><path d="M411 96.7L417 150.4L429 144.6Z" fill="#0093bb" stroke="#0093bb"></path><path d="M411 96.7L391 103.6L417 150.4Z" fill="#0087bb" stroke="#0087bb"></path><path d="M345 132.6L338 111.7L297 152.4Z" fill="#0093bb" stroke="#0093bb"></path><path d="M391 103.6L338 111.7L345 132.6Z" fill="#0093bb" stroke="#0093bb"></path><path d="M177 198.4L186 288L236 245.3Z" fill="#0093bb" stroke="#0093bb"></path><path d="M210 346.7L150 357.7L212 366.7Z" fill="#009dac" stroke="#009dac"></path><path d="M615 355.9L565 304.9L571 406.7Z" fill="#345bb1" stroke="#345bb1"></path><path d="M596 277.1L592 197.4L560 228.3Z" fill="#00a591" stroke="#00a591"></path><path d="M600 423.7L571 406.7L572 426.6Z" fill="#00aa6d" stroke="#00aa6d"></path><path d="M600 423.7L601 397.7L571 406.7Z" fill="#009dac" stroke="#009dac"></path><path d="M186 288L180 305.9L234 342.9Z" fill="#345bb1" stroke="#345bb1"></path><path d="M212 366.7L207 451.6L238 426.6Z" fill="#009dac" stroke="#009dac"></path><path d="M601 397.7L615 355.9L571 406.7Z" fill="#51ac44" stroke="#51ac44"></path><path d="M512 121.6L429 144.6L500 176.4Z" fill="#0087bb" stroke="#0087bb"></path><path d="M352 48.9L288 81.7L338 111.7Z" fill="#00a591" stroke="#00a591"></path><path d="M138 286.1L176 300L186 288Z" fill="#00aa6d" stroke="#00aa6d"></path><path d="M186 288L176 300L180 305.9Z" fill="#51ac44" stroke="#51ac44"></path><path d="M150 427.6L207 451.6L212 366.7Z" fill="#009dac" stroke="#009dac"></path><path d="M615 355.9L622 310.9L565 304.9Z" fill="#51ac44" stroke="#51ac44"></path><path d="M541 163.4L512 121.6L500 176.4Z" fill="#4d49a6" stroke="#4d49a6"></path><path d="M515 528.1L523 506.3L463 496.4Z" fill="#00aa6d" stroke="#00aa6d"></path><path d="M620 439.4L600 423.7L572 426.6Z" fill="#613396" stroke="#613396"></path><path d="M633 265L596 277.1L611 281Z" fill="#00a591" stroke="#00a591"></path><path d="M633 265L592 197.4L596 277.1Z" fill="#007abb" stroke="#007abb"></path><path d="M541 163.4L557 122.7L512 121.6Z" fill="#0093bb" stroke="#0093bb"></path><path d="M620 439.4L572 426.6L541 460.4Z" fill="#51ac44" stroke="#51ac44"></path><path d="M672 371.7L644 328L615 355.9Z" fill="#007abb" stroke="#007abb"></path><path d="M592 197.4L570 161.6L546 200.3Z" fill="#00aa6d" stroke="#00aa6d"></path><path d="M158 328.9L210 346.7L180 305.9Z" fill="#4d49a6" stroke="#4d49a6"></path><path d="M238 426.6L207 451.6L261 451.4Z" fill="#007abb" stroke="#007abb"></path><path d="M279 472.4L290 542.3L346 500.3Z" fill="#146bb8" stroke="#146bb8"></path><path d="M594 141.4L561 142.6L570 161.6Z" fill="#0093bb" stroke="#0093bb"></path><path d="M570 161.6L561 142.6L541 163.4Z" fill="#146bb8" stroke="#146bb8"></path><path d="M655 273.1L633 265L622 310.9Z" fill="#146bb8" stroke="#146bb8"></path><path d="M622 310.9L633 265L611 281Z" fill="#613396" stroke="#613396"></path><path d="M592 197.4L609 183.3L570 161.6Z" fill="#4d49a6" stroke="#4d49a6"></path><path d="M138 286.1L158 328.9L176 300Z" fill="#0093bb" stroke="#0093bb"></path><path d="M176 300L158 328.9L180 305.9Z" fill="#0093bb" stroke="#0093bb"></path><path d="M479 546.1L515 528.1L463 496.4Z" fill="#007abb" stroke="#007abb"></path><path d="M523 506.3L612 530.3L541 460.4Z" fill="#00aa6d" stroke="#00aa6d"></path><path d="M479 546.1L463 496.4L413 526.3Z" fill="#00a591" stroke="#00a591"></path><path d="M515 528.1L527 522.1L523 506.3Z" fill="#146bb8" stroke="#146bb8"></path><path d="M207 451.6L228 489.4L261 451.4Z" fill="#0087bb" stroke="#0087bb"></path><path d="M457 600L479 546.1L413 526.3Z" fill="#0093bb" stroke="#0093bb"></path><path d="M672 371.7L615 355.9L601 397.7Z" fill="#146bb8" stroke="#146bb8"></path><path d="M615 355.9L644 328L622 310.9Z" fill="#146bb8" stroke="#146bb8"></path><path d="M644 219.1L609 183.3L592 197.4Z" fill="#00aa6d" stroke="#00aa6d"></path><path d="M231 520.1L290 542.3L279 472.4Z" fill="#0087bb" stroke="#0087bb"></path><path d="M368 526.3L385 587.1L413 526.3Z" fill="#0093bb" stroke="#0093bb"></path><path d="M479 546.1L507 542.3L515 528.1Z" fill="#009dac" stroke="#009dac"></path><path d="M515 528.1L507 542.3L527 522.1Z" fill="#345bb1" stroke="#345bb1"></path><path d="M594 141.4L557 122.7L561 142.6Z" fill="#00a591" stroke="#00a591"></path><path d="M561 142.6L557 122.7L541 163.4Z" fill="#146bb8" stroke="#146bb8"></path><path d="M480 63.7L466 59.7L429 144.6Z" fill="#00a591" stroke="#00a591"></path><path d="M255 160.6L232 86.7L243 172.4Z" fill="#345bb1" stroke="#345bb1"></path><path d="M243 172.4L177 198.4L236 245.3Z" fill="#009dac" stroke="#009dac"></path><path d="M288 81.7L263 105.6L297 152.4Z" fill="#0087bb" stroke="#0087bb"></path><path d="M288 81.7L297 152.4L338 111.7Z" fill="#345bb1" stroke="#345bb1"></path><path d="M179 189.3L177 198.4L243 172.4Z" fill="#00aa6d" stroke="#00aa6d"></path><path d="M97 331.9L150 357.7L158 328.9Z" fill="#009dac" stroke="#009dac"></path><path d="M158 328.9L150 357.7L210 346.7Z" fill="#009dac" stroke="#009dac"></path><path d="M188 518.3L231 520.1L228 489.4Z" fill="#146bb8" stroke="#146bb8"></path><path d="M643 483.4L620 439.4L620 523.1Z" fill="#007abb" stroke="#007abb"></path><path d="M600 423.7L634 432.6L601 397.7Z" fill="#009dac" stroke="#009dac"></path><path d="M634 432.6L620 439.4L643 483.4Z" fill="#0093bb" stroke="#0093bb"></path><path d="M172 103.7L179 189.3L243 172.4Z" fill="#00a591" stroke="#00a591"></path><path d="M290 542.3L326 565.1L346 500.3Z" fill="#146bb8" stroke="#146bb8"></path><path d="M352 48.9L338 111.7L391 103.6Z" fill="#51ac44" stroke="#51ac44"></path><path d="M644 328L655 273.1L622 310.9Z" fill="#146bb8" stroke="#146bb8"></path><path d="M633 265L644 219.1L592 197.4Z" fill="#345bb1" stroke="#345bb1"></path><path d="M149 209.3L143 258.1L177 198.4Z" fill="#009dac" stroke="#009dac"></path><path d="M177 198.4L143 258.1L186 288Z" fill="#0093bb" stroke="#0093bb"></path><path d="M143 258.1L138 286.1L186 288Z" fill="#009dac" stroke="#009dac"></path><path d="M609 183.3L594 141.4L570 161.6Z" fill="#4d49a6" stroke="#4d49a6"></path><path d="M634 160.6L594 141.4L609 183.3Z" fill="#009dac" stroke="#009dac"></path><path d="M620 439.4L541 460.4L620 523.1Z" fill="#009dac" stroke="#009dac"></path><path d="M620 439.4L634 432.6L600 423.7Z" fill="#0087bb" stroke="#0087bb"></path><path d="M644 328L724 310.9L655 273.1Z" fill="#0087bb" stroke="#0087bb"></path><path d="M188 518.3L228 489.4L207 451.6Z" fill="#0093bb" stroke="#0093bb"></path><path d="M228 489.4L231 520.1L279 472.4Z" fill="#00aa6d" stroke="#00aa6d"></path><path d="M327 600L337 596.1L326 565.1Z" fill="#009dac" stroke="#009dac"></path><path d="M655 273.1L644 219.1L633 265Z" fill="#00a591" stroke="#00a591"></path><path d="M480 63.7L512 121.6L489 62.9Z" fill="#00a591" stroke="#00a591"></path><path d="M480 63.7L429 144.6L512 121.6Z" fill="#613396" stroke="#613396"></path><path d="M411 96.7L352 48.9L391 103.6Z" fill="#4d49a6" stroke="#4d49a6"></path><path d="M489 62.9L512 121.6L530 73.9Z" fill="#007abb" stroke="#007abb"></path><path d="M530 73.9L512 121.6L557 122.7Z" fill="#0093bb" stroke="#0093bb"></path><path d="M480 63.7L489 62.9L466 59.7Z" fill="#00aa6d" stroke="#00aa6d"></path><path d="M326 565.1L385 587.1L368 526.3Z" fill="#345bb1" stroke="#345bb1"></path><path d="M479 546.1L487 600L507 542.3Z" fill="#0087bb" stroke="#0087bb"></path><path d="M127 189.4L149 209.3L179 189.3Z" fill="#00a591" stroke="#00a591"></path><path d="M179 189.3L149 209.3L177 198.4Z" fill="#345bb1" stroke="#345bb1"></path><path d="M143 258.1L132 260L138 286.1Z" fill="#0093bb" stroke="#0093bb"></path><path d="M232 86.7L255 160.6L263 105.6Z" fill="#613396" stroke="#613396"></path><path d="M431 26.9L352 48.9L411 96.7Z" fill="#0093bb" stroke="#0093bb"></path><path d="M231 520.1L245 541.1L290 542.3Z" fill="#007abb" stroke="#007abb"></path><path d="M337 596.1L415 600L385 587.1Z" fill="#0093bb" stroke="#0093bb"></path><path d="M112 433.6L150 427.6L150 357.7Z" fill="#613396" stroke="#613396"></path><path d="M150 357.7L150 427.6L212 366.7Z" fill="#345bb1" stroke="#345bb1"></path><path d="M231 520.1L216 567.1L245 541.1Z" fill="#613396" stroke="#613396"></path><path d="M149 209.3L132 260L143 258.1Z" fill="#0087bb" stroke="#0087bb"></path><path d="M138 286.1L97 331.9L158 328.9Z" fill="#0087bb" stroke="#0087bb"></path><path d="M566 70.9L530 73.9L557 122.7Z" fill="#007abb" stroke="#007abb"></path><path d="M634 432.6L672 371.7L601 397.7Z" fill="#51ac44" stroke="#51ac44"></path><path d="M693 206.4L634 160.6L644 219.1Z" fill="#4d49a6" stroke="#4d49a6"></path><path d="M644 219.1L634 160.6L609 183.3Z" fill="#00aa6d" stroke="#00aa6d"></path><path d="M590 69.7L566 70.9L557 122.7Z" fill="#00a591" stroke="#00a591"></path><path d="M245 57.7L263 105.6L288 81.7Z" fill="#00aa6d" stroke="#00aa6d"></path><path d="M245 57.7L232 86.7L263 105.6Z" fill="#00a591" stroke="#00a591"></path><path d="M337 596.1L385 587.1L326 565.1Z" fill="#4d49a6" stroke="#4d49a6"></path><path d="M385 587.1L415 600L413 526.3Z" fill="#613396" stroke="#613396"></path><path d="M149 209.3L119 264L132 260Z" fill="#009dac" stroke="#009dac"></path><path d="M132 260L119 264L138 286.1Z" fill="#146bb8" stroke="#146bb8"></path><path d="M327 600L326 565.1L321 600Z" fill="#146bb8" stroke="#146bb8"></path><path d="M415 600L457 600L413 526.3Z" fill="#00a591" stroke="#00a591"></path><path d="M612 530.3L523 506.3L527 522.1Z" fill="#146bb8" stroke="#146bb8"></path><path d="M156 480.4L188 518.3L207 451.6Z" fill="#613396" stroke="#613396"></path><path d="M321 600L326 565.1L291 600Z" fill="#4d49a6" stroke="#4d49a6"></path><path d="M450 0L431 26.9L455 0Z" fill="#146bb8" stroke="#146bb8"></path><path d="M466 59.7L431 26.9L411 96.7Z" fill="#146bb8" stroke="#146bb8"></path><path d="M431 26.9L466 59.7L455 0Z" fill="#0087bb" stroke="#0087bb"></path><path d="M326 565.1L290 542.3L291 600Z" fill="#009dac" stroke="#009dac"></path><path d="M337 596.1L327 600L415 600Z" fill="#009dac" stroke="#009dac"></path><path d="M151 474.4L207 451.6L150 427.6Z" fill="#613396" stroke="#613396"></path><path d="M151 474.4L156 480.4L207 451.6Z" fill="#00a591" stroke="#00a591"></path><path d="M112 433.6L151 474.4L150 427.6Z" fill="#146bb8" stroke="#146bb8"></path><path d="M291 600L290 542.3L245 541.1Z" fill="#0093bb" stroke="#0093bb"></path><path d="M634 432.6L686 379.9L672 371.7Z" fill="#00aa6d" stroke="#00aa6d"></path><path d="M672 371.7L724 320L644 328Z" fill="#009dac" stroke="#009dac"></path><path d="M713 234.1L693 206.4L644 219.1Z" fill="#009dac" stroke="#009dac"></path><path d="M612 530.3L527 522.1L596 548.3Z" fill="#345bb1" stroke="#345bb1"></path><path d="M634 432.6L706 441.4L686 379.9Z" fill="#0093bb" stroke="#0093bb"></path><path d="M457 600L487 600L479 546.1Z" fill="#0087bb" stroke="#0087bb"></path><path d="M590 69.7L557 122.7L607 82.7Z" fill="#345bb1" stroke="#345bb1"></path><path d="M455 0L466 59.7L489 62.9Z" fill="#613396" stroke="#613396"></path><path d="M114 120.7L127 189.4L179 189.3Z" fill="#146bb8" stroke="#146bb8"></path><path d="M149 209.3L127 189.4L119 264Z" fill="#00a591" stroke="#00a591"></path><path d="M253 29.9L245 57.7L288 81.7Z" fill="#146bb8" stroke="#146bb8"></path><path d="M232 86.7L172 103.7L243 172.4Z" fill="#345bb1" stroke="#345bb1"></path><path d="M253 29.9L288 81.7L289 0Z" fill="#009dac" stroke="#009dac"></path><path d="M82 348.7L97 331.9L30 319Z" fill="#007abb" stroke="#007abb"></path><path d="M119 264L97 331.9L138 286.1Z" fill="#51ac44" stroke="#51ac44"></path><path d="M596 548.3L527 522.1L507 542.3Z" fill="#51ac44" stroke="#51ac44"></path><path d="M234 600L291 600L245 541.1Z" fill="#345bb1" stroke="#345bb1"></path><path d="M612 530.3L620 523.1L541 460.4Z" fill="#51ac44" stroke="#51ac44"></path><path d="M514 600L596 548.3L507 542.3Z" fill="#4d49a6" stroke="#4d49a6"></path><path d="M636 532.1L646 515.3L620 523.1Z" fill="#345bb1" stroke="#345bb1"></path><path d="M487 600L514 600L507 542.3Z" fill="#009dac" stroke="#009dac"></path><path d="M379 0L353 11.9L352 48.9Z" fill="#4d49a6" stroke="#4d49a6"></path><path d="M82 348.7L112 433.6L150 357.7Z" fill="#613396" stroke="#613396"></path><path d="M105 483.4L137 525.3L156 480.4Z" fill="#0087bb" stroke="#0087bb"></path><path d="M146 553.3L216 567.1L188 518.3Z" fill="#146bb8" stroke="#146bb8"></path><path d="M137 525.3L188 518.3L156 480.4Z" fill="#613396" stroke="#613396"></path><path d="M188 518.3L216 567.1L231 520.1Z" fill="#0093bb" stroke="#0093bb"></path><path d="M166 95.6L172 103.7L195 56.9Z" fill="#007abb" stroke="#007abb"></path><path d="M607 82.7L557 122.7L594 141.4Z" fill="#00aa6d" stroke="#00aa6d"></path><path d="M455 0L489 62.9L549 0Z" fill="#007abb" stroke="#007abb"></path><path d="M664 121.6L607 82.7L594 141.4Z" fill="#51ac44" stroke="#51ac44"></path><path d="M713 234.1L644 219.1L655 273.1Z" fill="#51ac44" stroke="#51ac44"></path><path d="M634 160.6L664 121.6L594 141.4Z" fill="#345bb1" stroke="#345bb1"></path><path d="M450 0L379 0L431 26.9Z" fill="#007abb" stroke="#007abb"></path><path d="M431 26.9L379 0L352 48.9Z" fill="#613396" stroke="#613396"></path><path d="M353 11.9L343 0L352 48.9Z" fill="#0087bb" stroke="#0087bb"></path><path d="M636 532.1L620 523.1L612 530.3Z" fill="#613396" stroke="#613396"></path><path d="M620 523.1L646 515.3L643 483.4Z" fill="#009dac" stroke="#009dac"></path><path d="M702 453.6L706 441.4L634 432.6Z" fill="#0093bb" stroke="#0093bb"></path><path d="M58 242.1L97 331.9L119 264Z" fill="#009dac" stroke="#009dac"></path><path d="M97 331.9L82 348.7L150 357.7Z" fill="#00a591" stroke="#00a591"></path><path d="M379 0L349 0L353 11.9Z" fill="#0093bb" stroke="#0093bb"></path><path d="M195 56.9L232 86.7L245 57.7Z" fill="#007abb" stroke="#007abb"></path><path d="M195 56.9L172 103.7L232 86.7Z" fill="#009dac" stroke="#009dac"></path><path d="M172 103.7L158 100.7L179 189.3Z" fill="#00a591" stroke="#00a591"></path><path d="M489 62.9L530 73.9L549 0Z" fill="#613396" stroke="#613396"></path><path d="M622 595.1L636 532.1L596 548.3Z" fill="#007abb" stroke="#007abb"></path><path d="M596 548.3L636 532.1L612 530.3Z" fill="#345bb1" stroke="#345bb1"></path><path d="M349 0L343 0L353 11.9Z" fill="#4d49a6" stroke="#4d49a6"></path><path d="M289 0L288 81.7L352 48.9Z" fill="#4d49a6" stroke="#4d49a6"></path><path d="M549 0L530 73.9L566 70.9Z" fill="#345bb1" stroke="#345bb1"></path><path d="M116 75.9L158 100.7L166 95.6Z" fill="#009dac" stroke="#009dac"></path><path d="M166 95.6L158 100.7L172 103.7Z" fill="#4d49a6" stroke="#4d49a6"></path><path d="M713 234.1L699 196.3L693 206.4Z" fill="#007abb" stroke="#007abb"></path><path d="M693 206.4L692 158.6L634 160.6Z" fill="#4d49a6" stroke="#4d49a6"></path><path d="M725 260L713 234.1L655 273.1Z" fill="#345bb1" stroke="#345bb1"></path><path d="M730 348.7L672 371.7L686 379.9Z" fill="#0087bb" stroke="#0087bb"></path><path d="M730 348.7L724 320L672 371.7Z" fill="#146bb8" stroke="#146bb8"></path><path d="M724 320L724 310.9L644 328Z" fill="#00a591" stroke="#00a591"></path><path d="M182 600L234 600L216 567.1Z" fill="#0093bb" stroke="#0093bb"></path><path d="M216 567.1L234 600L245 541.1Z" fill="#345bb1" stroke="#345bb1"></path><path d="M692 158.6L664 121.6L634 160.6Z" fill="#4d49a6" stroke="#4d49a6"></path><path d="M607 82.7L617 57.9L590 69.7Z" fill="#00aa6d" stroke="#00aa6d"></path><path d="M253 29.9L195 56.9L245 57.7Z" fill="#0093bb" stroke="#0093bb"></path><path d="M728 246.1L725 260L798 244.3Z" fill="#007abb" stroke="#007abb"></path><path d="M724 310.9L725 260L655 273.1Z" fill="#0093bb" stroke="#0093bb"></path><path d="M729 163.6L692 158.6L699 196.3Z" fill="#345bb1" stroke="#345bb1"></path><path d="M702 453.6L643 483.4L687 500.4Z" fill="#4d49a6" stroke="#4d49a6"></path><path d="M702 453.6L634 432.6L643 483.4Z" fill="#00a591" stroke="#00a591"></path><path d="M687 500.4L643 483.4L646 515.3Z" fill="#51ac44" stroke="#51ac44"></path><path d="M753 370.9L730 348.7L686 379.9Z" fill="#613396" stroke="#613396"></path><path d="M724 320L797 337L724 310.9Z" fill="#0087bb" stroke="#0087bb"></path><path d="M729 163.6L755 175.3L734 163.4Z" fill="#0087bb" stroke="#0087bb"></path><path d="M699 196.3L692 158.6L693 206.4Z" fill="#00a591" stroke="#00a591"></path><path d="M114 120.7L99 168.4L127 189.4Z" fill="#0093bb" stroke="#0093bb"></path><path d="M127 189.4L73 226.3L119 264Z" fill="#613396" stroke="#613396"></path><path d="M114 120.7L179 189.3L158 100.7Z" fill="#345bb1" stroke="#345bb1"></path><path d="M105 483.4L151 474.4L112 433.6Z" fill="#0093bb" stroke="#0093bb"></path><path d="M105 483.4L156 480.4L151 474.4Z" fill="#0087bb" stroke="#0087bb"></path><path d="M343 0L289 0L352 48.9Z" fill="#0093bb" stroke="#0093bb"></path><path d="M253 29.9L210 0L195 56.9Z" fill="#00aa6d" stroke="#00aa6d"></path><path d="M798 244.3L725 260L812 283.1Z" fill="#007abb" stroke="#007abb"></path><path d="M725 260L728 246.1L713 234.1Z" fill="#4d49a6" stroke="#4d49a6"></path><path d="M79 446.6L105 483.4L112 433.6Z" fill="#0087bb" stroke="#0087bb"></path><path d="M99 168.4L73 226.3L127 189.4Z" fill="#613396" stroke="#613396"></path><path d="M635 62.7L617 57.9L607 82.7Z" fill="#00a591" stroke="#00a591"></path><path d="M579 0L549 0L566 70.9Z" fill="#345bb1" stroke="#345bb1"></path><path d="M635 62.7L607 82.7L664 121.6Z" fill="#613396" stroke="#613396"></path><path d="M716 457.6L722 420.7L706 441.4Z" fill="#009dac" stroke="#009dac"></path><path d="M706 441.4L722 420.7L686 379.9Z" fill="#345bb1" stroke="#345bb1"></path><path d="M514 600L590 600L596 548.3Z" fill="#00aa6d" stroke="#00aa6d"></path><path d="M636 532.1L687 500.4L646 515.3Z" fill="#0087bb" stroke="#0087bb"></path><path d="M721 502.3L687 500.4L732 551.1Z" fill="#0093bb" stroke="#0093bb"></path><path d="M702 453.6L716 457.6L706 441.4Z" fill="#4d49a6" stroke="#4d49a6"></path><path d="M82 348.7L79 446.6L112 433.6Z" fill="#345bb1" stroke="#345bb1"></path><path d="M50 466.6L79 446.6L0 397.6Z" fill="#00aa6d" stroke="#00aa6d"></path><path d="M137 525.3L146 553.3L188 518.3Z" fill="#0093bb" stroke="#0093bb"></path><path d="M66 539.1L138 543.1L137 525.3Z" fill="#007abb" stroke="#007abb"></path><path d="M80 497.3L137 525.3L105 483.4Z" fill="#51ac44" stroke="#51ac44"></path><path d="M116 75.9L114 120.7L158 100.7Z" fill="#0087bb" stroke="#0087bb"></path><path d="M39 220.1L58 242.1L73 226.3Z" fill="#009dac" stroke="#009dac"></path><path d="M138 543.1L146 553.3L137 525.3Z" fill="#0087bb" stroke="#0087bb"></path><path d="M660 57.9L635 62.7L664 121.6Z" fill="#00a591" stroke="#00a591"></path><path d="M579 0L566 70.9L590 69.7Z" fill="#00aa6d" stroke="#00aa6d"></path><path d="M687 500.4L716 457.6L702 453.6Z" fill="#146bb8" stroke="#146bb8"></path><path d="M39 220.1L73 226.3L39 190.4Z" fill="#0093bb" stroke="#0093bb"></path><path d="M73 226.3L58 242.1L119 264Z" fill="#51ac44" stroke="#51ac44"></path><path d="M114 120.7L98 138.6L99 168.4Z" fill="#4d49a6" stroke="#4d49a6"></path><path d="M579 0L590 69.7L617 57.9Z" fill="#00a591" stroke="#00a591"></path><path d="M79 446.6L84 483.3L105 483.4Z" fill="#00aa6d" stroke="#00aa6d"></path><path d="M116 600L155 600L146 553.3Z" fill="#007abb" stroke="#007abb"></path><path d="M590 600L614 600L596 548.3Z" fill="#51ac44" stroke="#51ac44"></path><path d="M155 600L182 600L146 553.3Z" fill="#146bb8" stroke="#146bb8"></path><path d="M146 553.3L182 600L216 567.1Z" fill="#345bb1" stroke="#345bb1"></path><path d="M614 600L622 595.1L596 548.3Z" fill="#345bb1" stroke="#345bb1"></path><path d="M722 420.7L753 370.9L686 379.9Z" fill="#345bb1" stroke="#345bb1"></path><path d="M730 348.7L797 337L724 320Z" fill="#00aa6d" stroke="#00aa6d"></path><path d="M779 418.7L753 370.9L722 420.7Z" fill="#51ac44" stroke="#51ac44"></path><path d="M729 163.6L699 196.3L755 175.3Z" fill="#51ac44" stroke="#51ac44"></path><path d="M692 158.6L736 79.9L664 121.6Z" fill="#51ac44" stroke="#51ac44"></path><path d="M699 196.3L713 234.1L755 175.3Z" fill="#345bb1" stroke="#345bb1"></path><path d="M653 47.9L617 57.9L635 62.7Z" fill="#007abb" stroke="#007abb"></path><path d="M660 0L579 0L617 57.9Z" fill="#146bb8" stroke="#146bb8"></path><path d="M47 482.4L80 497.3L84 483.3Z" fill="#00aa6d" stroke="#00aa6d"></path><path d="M84 483.3L80 497.3L105 483.4Z" fill="#00aa6d" stroke="#00aa6d"></path><path d="M50 466.6L84 483.3L79 446.6Z" fill="#146bb8" stroke="#146bb8"></path><path d="M736 79.9L660 57.9L664 121.6Z" fill="#4d49a6" stroke="#4d49a6"></path><path d="M58 242.1L30 319L97 331.9Z" fill="#345bb1" stroke="#345bb1"></path><path d="M289 0L210 0L253 29.9Z" fill="#345bb1" stroke="#345bb1"></path><path d="M140 27.9L116 75.9L166 95.6Z" fill="#345bb1" stroke="#345bb1"></path><path d="M114 120.7L78 101.6L98 138.6Z" fill="#613396" stroke="#613396"></path><path d="M755 175.3L713 234.1L728 246.1Z" fill="#345bb1" stroke="#345bb1"></path><path d="M729 163.6L736 79.9L692 158.6Z" fill="#00a591" stroke="#00a591"></path><path d="M660 0L653 47.9L673 0Z" fill="#0087bb" stroke="#0087bb"></path><path d="M660 57.9L653 47.9L635 62.7Z" fill="#613396" stroke="#613396"></path><path d="M140 27.9L166 95.6L195 56.9Z" fill="#51ac44" stroke="#51ac44"></path><path d="M39 190.4L73 226.3L99 168.4Z" fill="#00a591" stroke="#00a591"></path><path d="M58 242.1L0 258.1L30 319Z" fill="#146bb8" stroke="#146bb8"></path><path d="M39 190.4L99 168.4L98 138.6Z" fill="#51ac44" stroke="#51ac44"></path><path d="M687 500.4L721 502.3L716 457.6Z" fill="#613396" stroke="#613396"></path><path d="M716 457.6L779 418.7L722 420.7Z" fill="#007abb" stroke="#007abb"></path><path d="M732 551.1L687 500.4L636 532.1Z" fill="#0093bb" stroke="#0093bb"></path><path d="M116 600L146 553.3L138 543.1Z" fill="#0087bb" stroke="#0087bb"></path><path d="M19 366.7L79 446.6L82 348.7Z" fill="#613396" stroke="#613396"></path><path d="M80 497.3L66 539.1L137 525.3Z" fill="#0093bb" stroke="#0093bb"></path><path d="M20 134.6L39 190.4L98 138.6Z" fill="#00a591" stroke="#00a591"></path><path d="M14 343.9L82 348.7L30 319Z" fill="#0093bb" stroke="#0093bb"></path><path d="M14 343.9L30 319L0 339Z" fill="#00a591" stroke="#00a591"></path><path d="M14 343.9L19 366.7L82 348.7Z" fill="#00a591" stroke="#00a591"></path><path d="M210 0L183 0L195 56.9Z" fill="#00aa6d" stroke="#00aa6d"></path><path d="M796 208.4L755 175.3L728 246.1Z" fill="#146bb8" stroke="#146bb8"></path><path d="M673 0L653 47.9L660 57.9Z" fill="#0093bb" stroke="#0093bb"></path><path d="M0 339L30 319L0 258.1Z" fill="#009dac" stroke="#009dac"></path><path d="M116 75.9L78 101.6L114 120.7Z" fill="#00aa6d" stroke="#00aa6d"></path><path d="M79 0L78 101.6L116 75.9Z" fill="#51ac44" stroke="#51ac44"></path><path d="M748 540.1L747 484.3L721 502.3Z" fill="#00a591" stroke="#00a591"></path><path d="M721 502.3L747 484.3L716 457.6Z" fill="#009dac" stroke="#009dac"></path><path d="M169 2.9L140 27.9L195 56.9Z" fill="#0093bb" stroke="#0093bb"></path><path d="M0 506.4L47 482.4L50 466.6Z" fill="#007abb" stroke="#007abb"></path><path d="M50 466.6L47 482.4L84 483.3Z" fill="#613396" stroke="#613396"></path><path d="M183 0L169 2.9L195 56.9Z" fill="#00a591" stroke="#00a591"></path><path d="M0 31.9L64 108.7L78 101.6Z" fill="#345bb1" stroke="#345bb1"></path><path d="M78 101.6L64 108.7L98 138.6Z" fill="#00aa6d" stroke="#00aa6d"></path><path d="M614 600L672 600L622 595.1Z" fill="#00aa6d" stroke="#00aa6d"></path><path d="M622 595.1L672 600L636 532.1Z" fill="#613396" stroke="#613396"></path><path d="M747 484.3L779 418.7L716 457.6Z" fill="#009dac" stroke="#009dac"></path><path d="M753 370.9L797 337L730 348.7Z" fill="#0093bb" stroke="#0093bb"></path><path d="M808 439.6L786 409.6L779 418.7Z" fill="#0093bb" stroke="#0093bb"></path><path d="M779 418.7L786 409.6L753 370.9Z" fill="#345bb1" stroke="#345bb1"></path><path d="M14 343.9L0 343.9L19 366.7Z" fill="#009dac" stroke="#009dac"></path><path d="M19 366.7L0 397.6L79 446.6Z" fill="#51ac44" stroke="#51ac44"></path><path d="M0 258.1L58 242.1L39 220.1Z" fill="#0087bb" stroke="#0087bb"></path><path d="M0 339L0 343.9L14 343.9Z" fill="#0087bb" stroke="#0087bb"></path><path d="M786 409.6L797 337L753 370.9Z" fill="#4d49a6" stroke="#4d49a6"></path><path d="M72 570.1L0 549.1L50 600Z" fill="#51ac44" stroke="#51ac44"></path><path d="M47 482.4L66 539.1L80 497.3Z" fill="#613396" stroke="#613396"></path><path d="M72 570.1L116 600L138 543.1Z" fill="#51ac44" stroke="#51ac44"></path><path d="M0 238.3L39 220.1L15 180.3Z" fill="#146bb8" stroke="#146bb8"></path><path d="M0 238.3L0 258.1L39 220.1Z" fill="#007abb" stroke="#007abb"></path><path d="M0 343.9L0 383.7L19 366.7Z" fill="#345bb1" stroke="#345bb1"></path><path d="M15 180.3L39 220.1L39 190.4Z" fill="#0093bb" stroke="#0093bb"></path><path d="M812 283.1L725 260L724 310.9Z" fill="#51ac44" stroke="#51ac44"></path><path d="M0 383.7L0 397.6L19 366.7Z" fill="#146bb8" stroke="#146bb8"></path><path d="M20 134.6L15 180.3L39 190.4Z" fill="#007abb" stroke="#007abb"></path><path d="M672 600L732 551.1L636 532.1Z" fill="#0093bb" stroke="#0093bb"></path><path d="M747 484.3L789 478.4L779 418.7Z" fill="#0093bb" stroke="#0093bb"></path><path d="M797 337L808 312.9L724 310.9Z" fill="#51ac44" stroke="#51ac44"></path><path d="M819 345.7L808 312.9L797 337Z" fill="#007abb" stroke="#007abb"></path><path d="M736 79.9L729 163.6L734 163.4Z" fill="#51ac44" stroke="#51ac44"></path><path d="M653 47.9L660 0L617 57.9Z" fill="#4d49a6" stroke="#4d49a6"></path><path d="M772 142.6L734 163.4L755 175.3Z" fill="#0093bb" stroke="#0093bb"></path><path d="M819 233.1L798 218.3L798 244.3Z" fill="#4d49a6" stroke="#4d49a6"></path><path d="M798 244.3L798 218.3L728 246.1Z" fill="#00a591" stroke="#00a591"></path><path d="M798 218.3L796 208.4L728 246.1Z" fill="#51ac44" stroke="#51ac44"></path><path d="M821 179.4L772 142.6L755 175.3Z" fill="#51ac44" stroke="#51ac44"></path><path d="M772 142.6L736 79.9L734 163.4Z" fill="#4d49a6" stroke="#4d49a6"></path><path d="M0 519.3L66 539.1L47 482.4Z" fill="#0087bb" stroke="#0087bb"></path><path d="M66 539.1L72 570.1L138 543.1Z" fill="#146bb8" stroke="#146bb8"></path><path d="M773 600L748 540.1L732 551.1Z" fill="#00a591" stroke="#00a591"></path><path d="M732 551.1L748 540.1L721 502.3Z" fill="#007abb" stroke="#007abb"></path><path d="M798 218.3L819 233.1L796 208.4Z" fill="#4d49a6" stroke="#4d49a6"></path><path d="M808 312.9L812 283.1L724 310.9Z" fill="#613396" stroke="#613396"></path><path d="M672 600L705 600L732 551.1Z" fill="#0093bb" stroke="#0093bb"></path><path d="M762 73.7L734 67.7L736 79.9Z" fill="#009dac" stroke="#009dac"></path><path d="M736 79.9L734 67.7L660 57.9Z" fill="#0087bb" stroke="#0087bb"></path><path d="M725 39.9L673 0L660 57.9Z" fill="#0093bb" stroke="#0093bb"></path><path d="M0 131.4L20 134.6L0 127.6Z" fill="#146bb8" stroke="#146bb8"></path><path d="M64 108.7L20 134.6L98 138.6Z" fill="#345bb1" stroke="#345bb1"></path><path d="M15 180.3L0 131.4L0 238.3Z" fill="#51ac44" stroke="#51ac44"></path><path d="M827 344.9L819 345.7L851 396.6Z" fill="#007abb" stroke="#007abb"></path><path d="M786 409.6L819 345.7L797 337Z" fill="#0087bb" stroke="#0087bb"></path><path d="M808 312.9L849 273L812 283.1Z" fill="#146bb8" stroke="#146bb8"></path><path d="M748 540.1L789 478.4L747 484.3Z" fill="#0093bb" stroke="#0093bb"></path><path d="M801 463.4L808 439.6L779 418.7Z" fill="#007abb" stroke="#007abb"></path><path d="M734 67.7L725 39.9L660 57.9Z" fill="#0087bb" stroke="#0087bb"></path><path d="M762 73.7L725 39.9L734 67.7Z" fill="#0087bb" stroke="#0087bb"></path><path d="M856 440.4L801 463.4L827 526.3Z" fill="#345bb1" stroke="#345bb1"></path><path d="M789 478.4L801 463.4L779 418.7Z" fill="#146bb8" stroke="#146bb8"></path><path d="M849 273L819 233.1L812 283.1Z" fill="#345bb1" stroke="#345bb1"></path><path d="M812 283.1L819 233.1L798 244.3Z" fill="#613396" stroke="#613396"></path><path d="M796 208.4L821 179.4L755 175.3Z" fill="#00aa6d" stroke="#00aa6d"></path><path d="M786 91.7L762 73.7L736 79.9Z" fill="#0093bb" stroke="#0093bb"></path><path d="M851 396.6L819 345.7L786 409.6Z" fill="#00a591" stroke="#00a591"></path><path d="M819 345.7L827 344.9L808 312.9Z" fill="#4d49a6" stroke="#4d49a6"></path><path d="M169 2.9L98 0L140 27.9Z" fill="#0093bb" stroke="#0093bb"></path><path d="M140 27.9L98 0L116 75.9Z" fill="#00a591" stroke="#00a591"></path><path d="M183 0L98 0L169 2.9Z" fill="#146bb8" stroke="#146bb8"></path><path d="M786 91.7L736 79.9L772 142.6Z" fill="#00aa6d" stroke="#00aa6d"></path><path d="M0 127.6L20 134.6L0 98.7Z" fill="#00a591" stroke="#00a591"></path><path d="M20 134.6L0 131.4L15 180.3Z" fill="#345bb1" stroke="#345bb1"></path><path d="M0 98.7L20 134.6L64 108.7Z" fill="#00a591" stroke="#00a591"></path><path d="M0 397.6L0 506.4L50 466.6Z" fill="#0087bb" stroke="#0087bb"></path><path d="M827 183.3L821 179.4L796 208.4Z" fill="#0093bb" stroke="#0093bb"></path><path d="M827 183.3L796 208.4L819 233.1Z" fill="#00a591" stroke="#00a591"></path><path d="M0 506.4L0 519.3L47 482.4Z" fill="#0087bb" stroke="#0087bb"></path><path d="M842 131.4L786 91.7L772 142.6Z" fill="#146bb8" stroke="#146bb8"></path><path d="M772 0L727 0L725 39.9Z" fill="#0087bb" stroke="#0087bb"></path><path d="M888 163.6L827 183.3L900 192.4Z" fill="#0087bb" stroke="#0087bb"></path><path d="M821 179.4L842 131.4L772 142.6Z" fill="#146bb8" stroke="#146bb8"></path><path d="M72 570.1L50 600L116 600Z" fill="#613396" stroke="#613396"></path><path d="M0 549.1L72 570.1L66 539.1Z" fill="#4d49a6" stroke="#4d49a6"></path><path d="M98 0L79 0L116 75.9Z" fill="#0093bb" stroke="#0093bb"></path><path d="M900 283L849 273L827 344.9Z" fill="#0093bb" stroke="#0093bb"></path><path d="M827 344.9L849 273L808 312.9Z" fill="#345bb1" stroke="#345bb1"></path><path d="M0 31.9L0 98.7L64 108.7Z" fill="#00a591" stroke="#00a591"></path><path d="M772 0L725 39.9L762 73.7Z" fill="#007abb" stroke="#007abb"></path><path d="M725 39.9L727 0L673 0Z" fill="#613396" stroke="#613396"></path><path d="M856 440.4L851 396.6L808 439.6Z" fill="#00a591" stroke="#00a591"></path><path d="M808 439.6L851 396.6L786 409.6Z" fill="#613396" stroke="#613396"></path><path d="M856 440.4L808 439.6L801 463.4Z" fill="#0093bb" stroke="#0093bb"></path><path d="M0 519.3L0 549.1L66 539.1Z" fill="#613396" stroke="#613396"></path><path d="M705 600L773 600L732 551.1Z" fill="#00aa6d" stroke="#00aa6d"></path><path d="M748 540.1L827 526.3L789 478.4Z" fill="#00a591" stroke="#00a591"></path><path d="M827 526.3L801 463.4L789 478.4Z" fill="#345bb1" stroke="#345bb1"></path><path d="M900 360.9L900 283L827 344.9Z" fill="#00a591" stroke="#00a591"></path><path d="M813 569.1L827 526.3L748 540.1Z" fill="#4d49a6" stroke="#4d49a6"></path><path d="M827 183.3L842 131.4L821 179.4Z" fill="#007abb" stroke="#007abb"></path><path d="M824 65.9L772 0L762 73.7Z" fill="#0087bb" stroke="#0087bb"></path><path d="M888 163.6L842 131.4L827 183.3Z" fill="#146bb8" stroke="#146bb8"></path><path d="M773 600L813 569.1L748 540.1Z" fill="#613396" stroke="#613396"></path><path d="M900 487.4L900 440.6L856 440.4Z" fill="#146bb8" stroke="#146bb8"></path><path d="M813 569.1L830 539.1L827 526.3Z" fill="#345bb1" stroke="#345bb1"></path><path d="M79 0L21 9.9L78 101.6Z" fill="#0087bb" stroke="#0087bb"></path><path d="M0 549.1L0 600L50 600Z" fill="#00a591" stroke="#00a591"></path><path d="M773 600L797 600L813 569.1Z" fill="#0093bb" stroke="#0093bb"></path><path d="M813 569.1L882 550.3L830 539.1Z" fill="#51ac44" stroke="#51ac44"></path><path d="M21 9.9L0 31.9L78 101.6Z" fill="#0093bb" stroke="#0093bb"></path><path d="M824 65.9L762 73.7L786 91.7Z" fill="#146bb8" stroke="#146bb8"></path><path d="M79 0L23 0L21 9.9Z" fill="#146bb8" stroke="#146bb8"></path><path d="M21 9.9L0 0L0 31.9Z" fill="#345bb1" stroke="#345bb1"></path><path d="M838 74.9L824 65.9L786 91.7Z" fill="#51ac44" stroke="#51ac44"></path><path d="M842 131.4L838 74.9L786 91.7Z" fill="#4d49a6" stroke="#4d49a6"></path><path d="M824 65.9L843 0L772 0Z" fill="#00a591" stroke="#00a591"></path><path d="M900 360.9L827 344.9L851 396.6Z" fill="#51ac44" stroke="#51ac44"></path><path d="M900 205.3L827 183.3L819 233.1Z" fill="#0087bb" stroke="#0087bb"></path><path d="M842 131.4L854 82.7L838 74.9Z" fill="#146bb8" stroke="#146bb8"></path><path d="M900 360.9L851 396.6L900 386.7Z" fill="#007abb" stroke="#007abb"></path><path d="M900 283L900 275.1L849 273Z" fill="#007abb" stroke="#007abb"></path><path d="M900 386.7L851 396.6L900 440.6Z" fill="#613396" stroke="#613396"></path><path d="M900 440.6L851 396.6L856 440.4Z" fill="#00a591" stroke="#00a591"></path><path d="M797 600L820 600L813 569.1Z" fill="#345bb1" stroke="#345bb1"></path><path d="M900 487.4L856 440.4L827 526.3Z" fill="#0093bb" stroke="#0093bb"></path><path d="M23 0L0 0L21 9.9Z" fill="#0087bb" stroke="#0087bb"></path><path d="M900 110.7L854 82.7L842 131.4Z" fill="#007abb" stroke="#007abb"></path><path d="M838 74.9L843 0L824 65.9Z" fill="#51ac44" stroke="#51ac44"></path><path d="M900 205.3L819 233.1L849 273Z" fill="#0087bb" stroke="#0087bb"></path><path d="M900 275.1L900 205.3L849 273Z" fill="#613396" stroke="#613396"></path><path d="M900 487.4L827 526.3L900 497.3Z" fill="#146bb8" stroke="#146bb8"></path><path d="M900 205.3L900 192.4L827 183.3Z" fill="#00a591" stroke="#00a591"></path><path d="M900 497.3L827 526.3L882 550.3Z" fill="#0087bb" stroke="#0087bb"></path><path d="M882 550.3L827 526.3L830 539.1Z" fill="#0093bb" stroke="#0093bb"></path><path d="M820 600L882 550.3L813 569.1Z" fill="#00aa6d" stroke="#00aa6d"></path><path d="M900 192.4L900 110.7L888 163.6Z" fill="#007abb" stroke="#007abb"></path><path d="M888 163.6L900 110.7L842 131.4Z" fill="#0087bb" stroke="#0087bb"></path><path d="M900 50.9L843 0L838 74.9Z" fill="#00a591" stroke="#00a591"></path><path d="M900 110.7L900 101.6L854 82.7Z" fill="#345bb1" stroke="#345bb1"></path><path d="M900 50.9L838 74.9L854 82.7Z" fill="#007abb" stroke="#007abb"></path><path d="M900 600L900 570.1L882 550.3Z" fill="#4d49a6" stroke="#4d49a6"></path><path d="M882 550.3L900 570.1L900 497.3Z" fill="#613396" stroke="#613396"></path><path d="M900 101.6L900 50.9L854 82.7Z" fill="#0093bb" stroke="#0093bb"></path><path d="M820 600L900 600L882 550.3Z" fill="#345bb1" stroke="#345bb1"></path><path d="M900 50.9L892 0L843 0Z" fill="#0093bb" stroke="#0093bb"></path><path d="M900 50.9L900 0L892 0Z" fill="#009dac" stroke="#009dac"></path></g></svg>