<svg id="visual" viewBox="0 0 900 600" width="900" height="600" xmlns="http://www.w3.org/2000/svg" xmlns:xlink="http://www.w3.org/1999/xlink" version="1.1"><rect x="0" y="0" width="900" height="600" fill="#1e3b25"></rect><defs><linearGradient id="grad1_0" x1="33.3%" y1="0%" x2="100%" y2="100%"><stop offset="20%" stop-color="#d2f57f" stop-opacity="1"></stop><stop offset="80%" stop-color="#d2f57f" stop-opacity="1"></stop></linearGradient></defs><defs><linearGradient id="grad1_1" x1="33.3%" y1="0%" x2="100%" y2="100%"><stop offset="20%" stop-color="#d2f57f" stop-opacity="1"></stop><stop offset="80%" stop-color="#99c46a" stop-opacity="1"></stop></linearGradient></defs><defs><linearGradient id="grad1_2" x1="33.3%" y1="0%" x2="100%" y2="100%"><stop offset="20%" stop-color="#689555" stop-opacity="1"></stop><stop offset="80%" stop-color="#99c46a" stop-opacity="1"></stop></linearGradient></defs><defs><linearGradient id="grad1_3" x1="33.3%" y1="0%" x2="100%" y2="100%"><stop offset="20%" stop-color="#689555" stop-opacity="1"></stop><stop offset="80%" stop-color="#3f663e" stop-opacity="1"></stop></linearGradient></defs><defs><linearGradient id="grad1_4" x1="33.3%" y1="0%" x2="100%" y2="100%"><stop offset="20%" stop-color="#1e3b25" stop-opacity="1"></stop><stop offset="80%" stop-color="#3f663e" stop-opacity="1"></stop></linearGradient></defs><defs><linearGradient id="grad2_0" x1="0%" y1="0%" x2="66.7%" y2="100%"><stop offset="20%" stop-color="#d2f57f" stop-opacity="1"></stop><stop offset="80%" stop-color="#d2f57f" stop-opacity="1"></stop></linearGradient></defs><defs><linearGradient id="grad2_1" x1="0%" y1="0%" x2="66.7%" y2="100%"><stop offset="20%" stop-color="#99c46a" stop-opacity="1"></stop><stop offset="80%" stop-color="#d2f57f" stop-opacity="1"></stop></linearGradient></defs><defs><linearGradient id="grad2_2" x1="0%" y1="0%" x2="66.7%" y2="100%"><stop offset="20%" stop-color="#99c46a" stop-opacity="1"></stop><stop offset="80%" stop-color="#689555" stop-opacity="1"></stop></linearGradient></defs><defs><linearGradient id="grad2_3" x1="0%" y1="0%" x2="66.7%" y2="100%"><stop offset="20%" stop-color="#3f663e" stop-opacity="1"></stop><stop offset="80%" stop-color="#689555" stop-opacity="1"></stop></linearGradient></defs><defs><linearGradient id="grad2_4" x1="0%" y1="0%" x2="66.7%" y2="100%"><stop offset="20%" stop-color="#3f663e" stop-opacity="1"></stop><stop offset="80%" stop-color="#1e3b25" stop-opacity="1"></stop></linearGradient></defs><g transform="translate(900, 0)"><path d="M0 486.7C-52.8 452.6 -105.7 418.5 -165.3 399.1C-225 379.8 -291.4 375.2 -342.2 342.2C-393.1 309.3 -428.2 248 -449.7 186.3C-471.2 124.5 -479 62.3 -486.7 0L0 0Z" fill="#2d5031"></path><path d="M0 389.4C-42.3 362.1 -84.5 334.8 -132.3 319.3C-180 303.8 -233.1 300.1 -273.8 273.8C-314.4 247.4 -342.6 198.4 -359.8 149C-376.9 99.6 -383.2 49.8 -389.4 0L0 0Z" fill="#527d49"></path><path d="M0 292C-31.7 271.6 -63.4 251.1 -99.2 239.5C-135 227.9 -174.9 225.1 -205.3 205.3C-235.8 185.6 -256.9 148.8 -269.8 111.8C-282.7 74.7 -287.4 37.4 -292 0L0 0Z" fill="#7fac60"></path><path d="M0 194.7C-21.1 181 -42.3 167.4 -66.1 159.6C-90 151.9 -116.6 150.1 -136.9 136.9C-157.2 123.7 -171.3 99.2 -179.9 74.5C-188.5 49.8 -191.6 24.9 -194.7 0L0 0Z" fill="#b5dd75"></path><path d="M0 97.3C-10.6 90.5 -21.1 83.7 -33.1 79.8C-45 76 -58.3 75 -68.4 68.4C-78.6 61.9 -85.6 49.6 -89.9 37.3C-94.2 24.9 -95.8 12.5 -97.3 0L0 0Z" fill="#d2f57f"></path></g><g transform="translate(0, 600)"><path d="M0 -486.7C50.7 -443.9 101.5 -401 156.5 -377.9C211.5 -354.8 270.8 -351.5 323.9 -323.9C376.9 -296.2 423.6 -244.3 449.7 -186.3C475.8 -128.2 481.3 -64.1 486.7 0L0 0Z" fill="#2d5031"></path><path d="M0 -389.4C40.6 -355.1 81.2 -320.8 125.2 -302.3C169.2 -283.8 216.7 -281.2 259.1 -259.1C301.5 -237 338.9 -195.4 359.8 -149C380.6 -102.6 385 -51.3 389.4 0L0 0Z" fill="#527d49"></path><path d="M0 -292C30.4 -266.3 60.9 -240.6 93.9 -226.7C126.9 -212.9 162.5 -210.9 194.3 -194.3C226.1 -177.7 254.2 -146.6 269.8 -111.8C285.5 -76.9 288.8 -38.5 292 0L0 0Z" fill="#7fac60"></path><path d="M0 -194.7C20.3 -177.5 40.6 -160.4 62.6 -151.1C84.6 -141.9 108.3 -140.6 129.5 -129.5C150.7 -118.5 169.4 -97.7 179.9 -74.5C190.3 -51.3 192.5 -25.6 194.7 0L0 0Z" fill="#b5dd75"></path><path d="M0 -97.3C10.1 -88.8 20.3 -80.2 31.3 -75.6C42.3 -71 54.2 -70.3 64.8 -64.8C75.4 -59.2 84.7 -48.9 89.9 -37.3C95.2 -25.6 96.3 -12.8 97.3 0L0 0Z" fill="#d2f57f"></path></g></svg>