<svg id="visual" viewBox="0 0 900 600" width="900" height="600" xmlns="http://www.w3.org/2000/svg" xmlns:xlink="http://www.w3.org/1999/xlink" version="1.1"><path d="M0 139L39 139L78 97L117 121L157 79L196 115L235 67L274 115L313 85L352 163L391 103L430 115L470 151L509 85L548 109L587 127L626 61L665 109L704 133L743 73L783 175L822 121L861 169L900 163L900 0L861 0L822 0L783 0L743 0L704 0L665 0L626 0L587 0L548 0L509 0L470 0L430 0L391 0L352 0L313 0L274 0L235 0L196 0L157 0L117 0L78 0L39 0L0 0Z" fill="#1c3a28"></path><path d="M0 175L39 175L78 127L117 145L157 97L196 151L235 79L274 133L313 121L352 175L391 115L430 127L470 163L509 97L548 121L587 151L626 91L665 133L704 169L743 109L783 205L822 151L861 193L900 181L900 161L861 167L822 119L783 173L743 71L704 131L665 107L626 59L587 125L548 107L509 83L470 149L430 113L391 101L352 161L313 83L274 113L235 65L196 113L157 77L117 119L78 95L39 137L0 137Z" fill="#004548"></path><path d="M0 217L39 241L78 205L117 229L157 169L196 199L235 145L274 187L313 145L352 217L391 187L430 175L470 229L509 163L548 151L587 181L626 115L665 157L704 235L743 157L783 253L822 175L861 271L900 211L900 179L861 191L822 149L783 203L743 107L704 167L665 131L626 89L587 149L548 119L509 95L470 161L430 125L391 113L352 173L313 119L274 131L235 77L196 149L157 95L117 143L78 125L39 173L0 173Z" fill="#004b6b"></path><path d="M0 247L39 265L78 217L117 259L157 205L196 211L235 181L274 205L313 169L352 241L391 223L430 205L470 247L509 193L548 175L587 217L626 151L665 187L704 265L743 169L783 283L822 199L861 283L900 235L900 209L861 269L822 173L783 251L743 155L704 233L665 155L626 113L587 179L548 149L509 161L470 227L430 173L391 185L352 215L313 143L274 185L235 143L196 197L157 167L117 227L78 203L39 239L0 215Z" fill="#004986"></path><path d="M0 289L39 295L78 253L117 289L157 271L196 241L235 223L274 259L313 223L352 307L391 259L430 229L470 277L509 217L548 223L587 253L626 169L665 247L704 325L743 193L783 325L822 229L861 325L900 283L900 233L861 281L822 197L783 281L743 167L704 263L665 185L626 149L587 215L548 173L509 191L470 245L430 203L391 221L352 239L313 167L274 203L235 179L196 209L157 203L117 257L78 215L39 263L0 245Z" fill="#483d96"></path><path d="M0 307L39 325L78 295L117 331L157 307L196 277L235 253L274 301L313 241L352 325L391 283L430 259L470 313L509 247L548 259L587 295L626 205L665 265L704 337L743 241L783 367L822 253L861 337L900 331L900 281L861 323L822 227L783 323L743 191L704 323L665 245L626 167L587 251L548 221L509 215L470 275L430 227L391 257L352 305L313 221L274 257L235 221L196 239L157 269L117 287L78 251L39 293L0 287Z" fill="#613396"></path><path d="M0 427L39 379L78 415L117 439L157 421L196 355L235 397L274 385L313 373L352 427L391 409L430 451L470 433L509 373L548 355L587 421L626 361L665 385L704 385L743 385L783 475L822 403L861 415L900 427L900 329L861 335L822 251L783 365L743 239L704 335L665 263L626 203L587 293L548 257L509 245L470 311L430 257L391 281L352 323L313 239L274 299L235 251L196 275L157 305L117 329L78 293L39 323L0 305Z" fill="#613396"></path><path d="M0 457L39 433L78 433L117 475L157 445L196 409L235 457L274 421L313 421L352 469L391 451L430 475L470 469L509 433L548 415L587 439L626 409L665 433L704 445L743 433L783 505L822 457L861 457L900 457L900 425L861 413L822 401L783 473L743 383L704 383L665 383L626 359L587 419L548 353L509 371L470 431L430 449L391 407L352 425L313 371L274 383L235 395L196 353L157 419L117 437L78 413L39 377L0 425Z" fill="#483d96"></path><path d="M0 487L39 445L78 451L117 487L157 457L196 439L235 469L274 433L313 451L352 481L391 481L430 505L470 487L509 457L548 427L587 469L626 439L665 457L704 457L743 457L783 523L822 487L861 487L900 481L900 455L861 455L822 455L783 503L743 431L704 443L665 431L626 407L587 437L548 413L509 431L470 467L430 473L391 449L352 467L313 419L274 419L235 455L196 407L157 443L117 473L78 431L39 431L0 455Z" fill="#004986"></path><path d="M0 535L39 547L78 553L117 541L157 547L196 535L235 541L274 541L313 535L352 523L391 547L430 547L470 541L509 553L548 535L587 547L626 547L665 541L704 553L743 547L783 559L822 523L861 535L900 553L900 479L861 485L822 485L783 521L743 455L704 455L665 455L626 437L587 467L548 425L509 455L470 485L430 503L391 479L352 479L313 449L274 431L235 467L196 437L157 455L117 485L78 449L39 443L0 485Z" fill="#004b6b"></path><path d="M0 571L39 577L78 577L117 571L157 571L196 559L235 553L274 571L313 571L352 565L391 571L430 577L470 571L509 583L548 547L587 565L626 559L665 583L704 583L743 571L783 571L822 559L861 571L900 583L900 551L861 533L822 521L783 557L743 545L704 551L665 539L626 545L587 545L548 533L509 551L470 539L430 545L391 545L352 521L313 533L274 539L235 539L196 533L157 545L117 539L78 551L39 545L0 533Z" fill="#004548"></path><path d="M0 601L39 601L78 601L117 601L157 601L196 601L235 601L274 601L313 601L352 601L391 601L430 601L470 601L509 601L548 601L587 601L626 601L665 601L704 601L743 601L783 601L822 601L861 601L900 601L900 581L861 569L822 557L783 569L743 569L704 581L665 581L626 557L587 563L548 545L509 581L470 569L430 575L391 569L352 563L313 569L274 569L235 551L196 557L157 569L117 569L78 575L39 575L0 569Z" fill="#1c3a28"></path></svg>